<svg width="24" height="24" viewBox="0 0 24 24" fill="none" xmlns="http://www.w3.org/2000/svg">
    <path d="M18.3333 15.8571V11.4C17.9167 11.4857 17.5 11.5714 17.0833 11.5714V17.1429H7.91667V10.7143C7.91667 8.31429 10.1667 6 12.5 6C12.5833 4.88571 13.0833 4.37143 13.75 3.6C13.5 3.25714 13 3 12.5 3C11.5833 3 10.8333 3.77143 10.8333 4.71429V4.97143C8.33333 5.74286 6.66667 8.05714 6.66667 10.7143V15.8571L5 17.5714V18.4286H20V17.5714L18.3333 15.8571ZM10.8333 19.2857C10.8333 20.2286 11.5833 21 12.5 21C13.4167 21 14.1667 20.2286 14.1667 19.2857H10.8333Z" fill="#121212"/>
    <circle cx="17" cy="7" r="3" fill="#699FF7"/>
</svg>
